<?xml version="1.0" standalone="no"?>
<!DOCTYPE svg PUBLIC "-//W3C//DTD SVG 20010904//EN"
 "http://www.w3.org/TR/2001/REC-SVG-20010904/DTD/svg10.dtd">
<svg version="1.0" xmlns="http://www.w3.org/2000/svg"
 width="1200.000000pt" height="1200.000000pt" viewBox="0 0 1200.000000 1200.000000"
 preserveAspectRatio="xMidYMid meet">

<g transform="translate(0.000000,1200.000000) scale(0.100000,-0.100000)"
fill="#000000" stroke="none">
<path d="M0 6000 l0 -6000 6000 0 6000 0 0 6000 0 6000 -6000 0 -6000 0 0
-6000z m6174 1781 c11 -21 25 -31 51 -35 l37 -7 -27 -25 c-23 -21 -26 -30 -20
-60 l6 -35 -30 16 c-28 14 -34 14 -61 0 -39 -20 -40 -20 -33 20 5 28 1 41 -16
59 l-23 24 32 7 c21 5 38 18 49 36 9 16 17 29 18 29 1 0 9 -13 17 -29z m-490
-223 c6 -4 24 -8 40 -8 l30 0 -28 -29 c-25 -26 -28 -35 -22 -66 7 -37 7 -37
-16 -21 -29 20 -52 20 -84 -1 l-26 -16 7 37 c7 32 4 41 -21 67 l-28 29 31 0
c34 0 58 18 69 52 6 21 7 21 22 -8 8 -16 20 -32 26 -36z m1008 22 c13 -23 24
-30 48 -30 l32 0 -26 -30 c-20 -24 -24 -37 -19 -62 5 -28 4 -31 -13 -24 -40
17 -53 17 -81 3 l-29 -15 4 35 c4 27 -1 40 -24 64 l-28 29 38 0 c31 0 40 5 54
30 9 16 19 30 22 30 3 0 13 -14 22 -30z m-424 -242 c7 -7 12 -24 12 -39 0 -25
-4 -28 -37 -31 l-38 -3 -3 -52 -3 -53 -40 0 -39 0 0 43 c0 50 -13 67 -52 67
-25 0 -28 3 -28 34 0 19 6 37 13 39 27 11 203 7 215 -5z m28 -269 c203 -28
401 -149 515 -316 67 -97 128 -265 129 -350 l0 -33 -785 0 c-452 0 -785 4
-785 9 0 47 39 192 69 256 76 164 183 277 336 357 150 78 327 104 521 77z
m724 -834 c0 -46 -4 -60 -25 -80 -24 -25 -26 -25 -209 -25 -178 0 -185 1 -191
21 -8 25 -62 59 -93 59 -13 0 -89 -27 -169 -60 l-146 -60 -147 0 -147 0 -33
41 c-18 23 -51 50 -74 60 -81 37 -209 17 -260 -40 -16 -18 -30 -21 -92 -21
-114 0 -144 24 -144 115 l0 45 865 0 865 0 0 -55z m-1215 -160 l53 -55 149 0
c118 0 153 -3 171 -16 12 -8 22 -21 22 -29 0 -8 -10 -21 -22 -29 -18 -13 -53
-16 -175 -16 l-153 0 0 -35 0 -34 151 -3 152 -3 -141 -78 -141 -78 -191 21
c-106 11 -200 20 -211 20 -18 0 -19 9 -19 140 l0 140 31 0 c24 0 42 12 84 55
l52 55 68 0 68 0 52 -55z m720 20 c0 -27 -9 -35 -125 -101 -69 -40 -127 -73
-130 -73 -3 -1 -5 26 -5 58 l0 59 105 46 c122 53 155 56 155 11z m-1315 -240
l0 -195 -115 0 -115 0 0 195 0 195 115 0 115 0 0 -195z m160 0 l0 -195 -40 0
-40 0 0 195 0 195 40 0 40 0 0 -195z m4880 -80 l0 -95 -1425 0 -1425 0 0 95 0
95 1425 0 1425 0 0 -95z m-5650 -20 l0 -95 -1425 0 -1425 0 0 95 0 95 1425 0
1425 0 0 -95z m-484 -790 c15 -23 15 -27 0 -50 -11 -17 -26 -25 -44 -25 -35 0
-52 16 -52 50 0 34 17 50 52 50 18 0 33 -8 44 -25z m254 -131 l0 -156 35 31
c42 36 72 45 126 38 92 -12 149 -96 149 -218 0 -88 -20 -139 -75 -192 -73 -71
-188 -87 -283 -38 l-42 21 -1 258 c0 141 -3 275 -7 297 -7 36 -10 40 -40 43
-17 2 -32 7 -32 11 0 10 119 59 148 60 22 1 22 0 22 -155z m1301 -141 c1 -164
4 -309 8 -323 5 -19 14 -26 39 -28 18 -2 32 -7 32 -11 0 -10 -129 -61 -153
-61 -12 0 -17 8 -17 25 l0 26 -30 -22 c-39 -29 -125 -37 -167 -16 -145 75
-160 294 -28 416 26 24 58 42 79 46 39 8 100 3 129 -10 16 -7 18 -1 15 86 l-3
94 -32 3 c-18 2 -33 7 -33 11 0 9 119 60 143 60 16 1 17 -20 18 -296z m721
-40 l3 -338 33 -10 c59 -17 33 -25 -83 -25 -70 0 -115 4 -115 10 0 6 8 10 19
10 42 0 46 21 49 269 2 130 -1 261 -5 291 -8 53 -9 55 -41 58 -17 2 -32 7 -32
11 0 10 119 59 147 60 l23 1 2 -337z m270 320 c22 -20 23 -41 1 -65 -18 -20
-63 -24 -81 -6 -7 7 -12 24 -12 38 0 14 5 31 12 38 17 17 58 15 80 -5z m732 1
c48 -48 -25 -113 -76 -67 -22 20 -23 41 -1 65 20 22 56 23 77 2z m-3560 -257
c61 -47 60 -109 -1 -115 -35 -3 -63 19 -63 49 0 54 -47 79 -103 55 -51 -21
-81 -89 -75 -170 12 -145 110 -224 206 -166 18 11 42 36 53 55 12 19 26 35 31
35 18 0 0 -62 -30 -105 -68 -97 -194 -114 -275 -37 -121 114 -93 334 52 412
55 31 156 24 205 -13z m286 -180 c0 -225 2 -237 47 -237 13 0 23 -4 23 -10 0
-6 -45 -10 -115 -10 -70 0 -115 4 -115 10 0 6 8 10 19 10 37 0 46 27 49 159 2
69 -1 146 -5 171 -8 41 -11 45 -41 48 -17 2 -32 7 -32 11 0 10 119 59 148 60
l22 1 0 -213z m972 178 c26 -19 53 -51 71 -85 26 -49 28 -62 25 -125 -10 -153
-106 -243 -248 -233 -93 7 -167 77 -190 182 -23 103 32 227 120 274 65 34 162
29 222 -13z m971 21 c42 -17 83 -66 97 -114 18 -65 25 -62 -151 -62 l-161 0 7
-42 c16 -96 81 -161 160 -161 53 0 90 22 112 68 17 36 27 42 38 24 11 -18 -45
-118 -82 -146 -48 -37 -133 -44 -189 -15 -83 43 -118 108 -117 222 0 115 46
194 133 229 37 14 116 13 153 -3z m607 -195 c0 -223 4 -241 51 -241 10 0 19
-4 19 -10 0 -6 -45 -10 -115 -10 -70 0 -115 4 -115 10 0 6 9 10 19 10 42 0 51
35 51 187 0 167 -7 193 -50 193 -16 0 -30 4 -30 8 0 11 118 60 148 61 l22 1 0
-209z m730 12 c0 -109 3 -208 6 -221 4 -15 17 -25 35 -29 63 -12 23 -23 -86
-23 -70 0 -115 4 -115 10 0 6 9 10 19 10 45 0 51 21 51 190 0 87 -3 165 -6
174 -4 10 -18 16 -35 16 -46 0 -34 16 34 43 104 43 97 56 97 -170z m433 183
c53 -21 114 -99 128 -161 22 -101 -18 -213 -99 -269 -59 -42 -150 -48 -217
-16 -125 61 -162 252 -72 373 59 77 173 110 260 73z m424 5 c20 -6 35 -6 38 0
4 5 13 9 21 9 11 0 14 -17 14 -80 0 -61 -3 -80 -14 -80 -7 0 -16 13 -19 29
-16 77 -106 123 -160 81 -55 -43 -30 -81 98 -148 78 -41 93 -53 112 -91 36
-70 13 -135 -61 -173 -34 -17 -50 -19 -105 -13 -37 4 -81 7 -98 7 l-33 -1 0
80 c0 87 11 100 35 42 9 -21 25 -48 36 -60 62 -65 159 -48 159 28 0 39 -29 67
-118 114 -91 48 -112 73 -112 136 0 37 6 54 27 79 14 18 36 36 47 40 29 12 94
12 133 1z m488 -10 c79 -35 125 -115 125 -215 0 -139 -98 -246 -225 -246 -125
0 -215 97 -215 234 0 103 46 187 125 226 52 25 137 26 190 1z m-1548 -5 c-3
-8 -71 -102 -151 -209 -80 -107 -146 -198 -146 -202 0 -4 50 -6 110 -3 122 5
137 12 149 69 3 18 12 34 19 37 9 3 12 -16 12 -67 l0 -71 -210 0 c-115 0 -210
3 -210 8 1 4 68 97 150 207 l150 200 -97 3 c-106 3 -126 -5 -137 -59 -10 -53
-26 -31 -26 36 l0 65 196 0 c163 0 195 -2 191 -14z"/>
<path d="M6276 6974 c-4 -20 -6 -37 -4 -39 2 -2 19 -6 39 -10 36 -7 37 -6 43
30 4 20 6 38 4 40 -2 1 -19 5 -39 9 -36 6 -37 6 -43 -30z"/>
<path d="M6436 6928 l-14 -33 56 -30 c32 -17 73 -42 93 -57 l35 -28 23 31 22
30 -23 19 c-33 28 -129 86 -156 95 -19 5 -25 1 -36 -27z"/>
<path d="M4409 4657 l-34 -23 -3 -142 -3 -142 33 -20 c102 -62 199 37 185 191
-6 69 -29 114 -70 139 -42 26 -66 25 -108 -3z"/>
<path d="M5434 4701 c-89 -54 -97 -250 -14 -333 30 -30 45 -38 74 -38 20 0 48
7 61 16 25 16 25 19 25 153 0 118 -3 140 -20 169 -18 30 -54 52 -83 52 -7 0
-26 -9 -43 -19z"/>
<path d="M4914 4706 c-90 -40 -91 -273 -3 -364 66 -67 159 -28 174 72 28 187
-62 340 -171 292z"/>
<path d="M5903 4692 c-18 -14 -53 -77 -53 -97 0 -3 47 -5 104 -5 l104 0 -8 36
c-17 75 -92 109 -147 66z"/>
<path d="M7693 4705 c-50 -21 -68 -66 -67 -165 0 -138 53 -230 131 -230 78 0
107 46 108 170 0 166 -76 266 -172 225z"/>
<path d="M8600 4707 c-13 -7 -35 -28 -48 -47 -22 -32 -23 -43 -20 -130 6 -143
55 -220 138 -220 30 0 44 6 64 30 31 38 39 78 34 172 -4 81 -35 159 -72 183
-33 22 -69 26 -96 12z"/>
</g>
</svg>
